#!OML:ASF H:\ManfredETheater\Project 1\Capture day 1\Session 1\subject.ASF
:FULLY-SPECIFIED
:DEGREES
145
root -5.39508 11.4864 -15.9096 -8.31572 60.9102 -20.6424
lowerback 54.8917 -4.03462 2.68574
upperback 11.1384 -1.1147 4.04557
thorax -8.59698 -0.17095 3.64307
lowerneck -2.45079 -13.2717 -13.8544
upperneck -13.3258 -16.3887 24.9241
head 0.0452153 -8.59998 9.37335
rclavicle 5.56597e-015 2.46493e-014
rhumerus -41.0393 -13.2475 -60.9939
rradius 106.895
rwrist -10.5361
rhand -31.8547 -18.6746
rfingers 7.12502
rthumb -5.10841 -48.5931
lclavicle 5.56597e-015 2.46493e-014
lhumerus -24.1961 4.1945 67.6975
lradius 111.414
lwrist 1.06815
lhand -36.0174 3.28656
lfingers 7.12502
lthumb -9.12664 33.0691
rfemur -69.3188 -28.1797 2.29376
rtibia 77.3898
rfoot -8.89074 -0.413149
rtoes -40.1224
lfemur -86.9389 17.719 -17.9629
ltibia 117.331
lfoot -29.8789 -31.937
ltoes 30.5428
146
root -5.42586 11.3781 -15.7618 -8.49304 61.4281 -20.4292
lowerback 55.403 -4.18086 2.74718
upperback 11.225 -1.17417 4.04905
thorax -8.53473 -0.183975 3.65363
lowerneck -2.10023 -13.3266 -14.0395
upperneck -13.7049 -16.448 25.0628
head -0.0754903 -8.66189 9.48287
rclavicle -4.92986e-014 3.89618e-014
rhumerus -40.588 -13.189 -60.394
rradius 106.27
rwrist -11.5079
rhand -31.5375 -18.5578
rfingers 7.12502
rthumb -4.80214 -48.4834
lclavicle -4.92986e-014 3.89618e-014
lhumerus -23.4933 5.60267 66.3745
lradius 110.449
lwrist 2.21626
lhand -35.9014 4.1768
lfingers 7.12502
lthumb -9.01462 33.9642
rfemur -69.9361 -28.6867 2.08374
rtibia 79.3568
rfoot -9.0336 0.0159618
rtoes -40.4036
lfemur -87.2966 18.2882 -17.6299
ltibia 118.347
lfoot -29.7991 -32.7211
ltoes 30.2293
147
root -5.45456 11.2708 -15.6155 -8.83082 61.9081 -20.3826
lowerback 55.8954 -4.34049 2.86383
upperback 11.3137 -1.21881 4.05315
thorax -8.46551 -0.189965 3.63358
lowerneck -1.73571 -13.3736 -14.1596
upperneck -14.0753 -16.5001 25.176
head -0.206288 -8.72246 9.57724
rclavicle -3.97569e-015 5.56597e-015
rhumerus -40.0766 -13.1297 -59.8331
rradius 105.622
rwrist -12.5812
rhand -31.1623 -18.4368
rfingers 7.12502
rthumb -4.43989 -48.3703
lclavicle -3.97569e-015 5.56597e-015
lhumerus -22.8758 6.89426 65.1025
lradius 109.429
lwrist 3.09811
lhand -35.6297 4.94694
lfingers 7.12502
lthumb -8.75248 34.7455
rfemur -70.4822 -29.1568 1.96456
rtibia 81.274
rfoot -9.14906 0.520409
rtoes -40.3768
lfemur -87.6491 18.9361 -17.2066
ltibia 119.358
lfoot -29.6968 -33.5193
ltoes 29.9096
148
root -5.48148 11.1641 -15.4702 -9.29679 62.3414 -20.4892
lowerback 56.3404 -4.50112 3.00717
upperback 11.4079 -1.25219 4.06281
thorax -8.38438 -0.191442 3.60221
lowerneck -1.36226 -13.4079 -14.2402
upperneck -14.4215 -16.5394 25.2732
head -0.339626 -8.77741 9.66276
rclavicle -2.38542e-015 -2.38542e-015
rhumerus -39.4952 -13.0543 -59.3178
rradius 104.934
rwrist -13.6748
rhand -30.7568 -18.3101
rfingers 7.12502
rthumb -4.04825 -48.2514
lclavicle -2.38542e-015 -2.38542e-015
lhumerus -22.3506 8.09025 63.8874
lradius 108.367
lwrist 3.79355
lhand -35.18 5.49837
lfingers 7.12502
lthumb -8.3185 35.3146
rfemur -70.9884 -29.5901 1.93758
rtibia 83.1465
rfoot -9.28329 1.07908
rtoes -40.1228
lfemur -88.0192 19.6751 -16.6996
ltibia 120.36
lfoot -29.5642 -34.3518
ltoes 29.6007
149
root -5.50681 11.0582 -15.3261 -9.83023 62.736 -20.6905
lowerback 56.7269 -4.6548 3.15651
upperback 11.5051 -1.27913 4.0715
thorax -8.29396 -0.190432 3.56343
lowerneck -0.976052 -13.4319 -14.2713
upperneck -14.7383 -16.5697 25.3514
head -0.47547 -8.82902 9.73651
rclavicle -1.35174e-014 9.70069e-014
rhumerus -38.8592 -12.9589 -58.8619
rradius 104.178
rwrist -14.63
rhand -30.3848 -18.1412
rfingers 7.12502
rthumb -3.68908 -48.089
lclavicle -1.35174e-014 9.70069e-014
lhumerus -21.9135 9.14162 62.7302
lradius 107.302
lwrist 4.44084
lhand -34.7061 5.95535
lfingers 7.12502
lthumb -7.86113 35.7892
rfemur -71.4761 -30.0029 1.97481
rtibia 84.9836
rfoot -9.49422 1.63559
rtoes -39.7745
lfemur -88.4142 20.4953 -16.1471
ltibia 121.346
lfoot -29.4023 -35.2252
ltoes 29.311
150
root -5.53074 10.9528 -15.1832 -10.3696 63.1055 -20.9155
lowerback 57.0509 -4.7834 3.28541
upperback 11.6086 -1.29311 4.08554
thorax -8.19198 -0.1844 3.53276
lowerneck -0.570256 -13.4529 -14.2456
upperneck -15.0368 -16.5997 25.404
head -0.618 -8.88275 9.79541
rclavicle 1.59028e-014 5.725e-014
rhumerus -38.1866 -12.8689 -58.4487
rradius 103.35
rwrist -15.3875
rhand -30.0644 -17.9288
rfingers 7.12502
rthumb -3.3797 -47.8817
lclavicle 1.59028e-014 5.725e-014
lhumerus -21.5304 10.0239 61.6503
lradius 106.24
lwrist 5.11546
lhand -34.2491 6.30077
lfingers 7.12502
lthumb -7.41998 36.1506
rfemur -71.9625 -30.419 2.04281
rtibia 86.7998
rfoot -9.81546 2.11479
rtoes -39.476
lfemur -88.8218 21.3531 -15.5711
ltibia 122.31
lfoot -29.2092 -36.1277
ltoes 29.036
151
root -5.5536 10.8479 -15.0414 -10.8632 63.4585 -21.0968
lowerback 57.3258 -4.88196 3.37541
upperback 11.7163 -1.29927 4.09741
thorax -8.0826 -0.17527 3.51245
lowerneck -0.149501 -13.4753 -14.1691
upperneck -15.3119 -16.6352 25.4382
head -0.762639 -8.941 9.84125
rclavicle 1.98785e-014 -5.1684e-015
rhumerus -37.4934 -12.7937 -58.0816
rradius 102.452
rwrist -15.9079
rhand -29.8032 -17.6895
rfingers 7.12502
rthumb -3.1274 -47.6463
lclavicle 1.98785e-014 -5.1684e-015
lhumerus -21.1814 10.7247 60.6444
lradius 105.187
lwrist 5.84416
lhand -33.8502 6.51834
lfingers 7.12502
lthumb -7.03494 36.3814
rfemur -72.4579 -30.8518 2.11284
rtibia 88.6062
rfoot -10.2524 2.46697
rtoes -39.2793
lfemur -89.2261 22.231 -14.9965
ltibia 123.246
lfoot -28.9934 -37.052
ltoes 28.751
152
root -5.57558 10.7434 -14.9006 -11.2736 63.8062 -21.1835
lowerback 57.5679 -4.94759 3.40859
upperback 11.8241 -1.30259 4.11097
thorax -7.97166 -0.165701 3.51713
lowerneck 0.284827 -13.4998 -14.0649
upperneck -15.5636 -16.677 25.4571
head -0.906525 -9.00309 9.87831
rclavicle 5.48646e-014 -4.8901e-014
rhumerus -36.7853 -12.7275 -57.7539
rradius 101.491
rwrist -16.1843
rhand -29.6179 -17.4328
rfingers 7.12502
rthumb -2.94841 -47.3921
lclavicle 5.48646e-014 -4.8901e-014
lhumerus -20.8588 11.2537 59.7216
lradius 104.143
lwrist 6.59656
lhand -33.5434 6.61911
lfingers 7.12502
lthumb -6.73876 36.4919
rfemur -72.9664 -31.3179 2.1624
rtibia 90.4103
rfoot -10.7951 2.67176
rtoes -39.2072
lfemur -89.6152 23.1126 -14.4422
ltibia 124.153
lfoot -28.7404 -37.9997
ltoes 28.4816
